<svg width="67" height="64" viewBox="0 0 67 64" fill="none" xmlns="http://www.w3.org/2000/svg">
<path d="M30.3311 0.298283C29.9734 0.102576 29.5722 0 29.1645 0C28.7568 0 28.3556 0.102576 27.9979 0.298283L2.68961 14.1028C2.15574 14.395 1.67749 14.7789 1.27676 15.237L29.1645 30.4446L57.0522 15.2305C56.6512 14.7736 56.173 14.3908 55.6394 14.0996L30.3311 0.298283ZM0 45.3671V20.075L27.9979 35.3475C28.3556 35.5432 28.7568 35.6458 29.1645 35.6458C29.5722 35.6458 29.9734 35.5432 30.3311 35.3475L58.329 20.075V45.3671C58.329 48.1603 57.2194 50.8391 55.2443 52.8141C53.2693 54.7892 50.5905 55.8988 47.7973 55.8988H10.5316C7.73846 55.8988 5.0597 54.7892 3.08464 52.8141C1.10958 50.8391 0 48.1603 0 45.3671ZM61.5727 18.6687C63.063 19.621 64.2895 20.9333 65.139 22.4845C65.9885 24.0357 66.4337 25.7758 66.4334 27.5444V46.9874C66.4334 51.4994 64.6411 55.8266 61.4506 59.0171C58.2601 62.2076 53.9329 64 49.4208 64H20.2564C18.4867 64.0013 16.7452 63.5566 15.1928 62.7071C13.6404 61.8575 12.3271 60.6305 11.3741 59.1393H49.4176C52.6405 59.1393 55.7313 57.859 58.0103 55.5801C60.2892 53.3011 61.5695 50.2103 61.5695 46.9874L61.5727 18.6687Z" fill="url(#paint0_linear_81_1191)"/>
<defs>
<linearGradient id="paint0_linear_81_1191" x1="38.0978" y1="64" x2="35.5776" y2="0.096895" gradientUnits="userSpaceOnUse">
<stop stop-color="#F18C3E"/>
<stop offset="1" stop-color="#F9B040"/>
</linearGradient>
</defs>
</svg>
